<?xml version="1.0" encoding="UTF-8"?>
<svg id="Layer_2" data-name="Layer 2" xmlns="http://www.w3.org/2000/svg" viewBox="0 0 1903.23 330.66">
  <defs>
    <style>
      .cls-1 {
        fill: #fff;
        stroke-width: 0px;
      }
    </style>
  </defs>
  <g id="Layer_1-2" data-name="Layer 1">
    <g id="White">
      <g>
        <g>
          <polygon class="cls-1" points="120.1 176.15 116.78 176.15 112.02 177.32 107.28 177.92 103.28 180.24 99.14 182.12 95.05 184.68 92.56 186.65 91.45 186.91 91.34 186.89 91.25 186.8 91.25 181.61 89.04 177.61 88.28 173.78 81.77 170.89 76.71 170.15 71.75 172.57 67.64 174.05 64.38 176.34 62.39 179.9 61.71 184.22 62 188.68 63.35 192.7 67.46 199.42 67.67 201.88 68.2 205.31 68.2 209.22 68.47 214.33 68.21 218.65 67.68 223.13 67.66 227.28 67.43 231.73 67.13 235.44 67.42 238.58 67.42 244.96 67.68 249.49 67.37 253.16 68.75 256.65 70.08 259.78 73.11 263.04 76.89 263.97 80.06 263.27 84.7 261.88 88.08 258.66 90.73 253.4 90.73 248.88 91.26 244.76 91.52 241.01 92.62 236.98 92.91 232.69 92.91 223.59 93.16 220.01 94.1 216.71 95.32 213.44 96.61 209.77 96.61 205.62 97.5 203.09 98.83 200.33 102.11 197.4 103.9 195.28 108.56 193.3 110.88 190.12 114.4 188.09 117.33 187.66 119.44 187.66 122.49 187.98 124.59 187.39 127.23 187.39 127.23 181.59 125.16 177.79 120.1 176.15"/>
          <polygon class="cls-1" points="185.68 59.9 183.5 54.74 176.07 54.74 175.34 63.47 182.32 65.88 185.68 59.9"/>
          <polygon class="cls-1" points="143.82 225.64 143.13 235.04 149.61 235.84 154.83 230.94 150.23 225.64 143.82 225.64"/>
          <polygon class="cls-1" points="273.07 263.46 272.52 256.44 270.71 241.07 269.61 232.94 269.33 222.13 267.68 219.14 267.68 204.49 266.17 197.82 267.63 194.55 268.5 184.65 268.5 181.28 271.09 186.91 278.93 178.74 272.29 170.57 268.52 176.22 268.77 168.78 269.32 158.49 269.6 150.59 267.11 135.03 267.11 126.43 266.56 111.07 266.83 103.02 267.11 96.39 266.83 89.21 265.88 82.21 262.08 77.07 257.94 73.23 252.61 69.87 247.54 69.26 241.89 67.88 232.2 73.97 228.24 79.26 225.35 82.3 221.21 89.55 220.07 95 217.35 100.3 214.56 106.94 214.24 113.75 216.3 119.43 217.36 120.64 216.17 123.46 214.17 129.84 210.77 137.88 207.73 147.02 205.18 152.23 203.88 156.46 201.32 153.21 199.49 147.49 198.7 140.95 197.58 132.65 196.43 126.56 194.03 118.76 192.66 112.38 187.77 95.73 186.05 88.98 183.26 83.23 179.74 79.12 173.93 79.12 168.33 82.36 163.14 89.91 159 95.3 158.25 100 155.92 101.82 154.58 106.6 146.39 126.5 146.39 130.23 142.46 136.56 142.74 140.67 139.43 146.65 138.57 153.77 133.69 170.64 133.2 183.25 131.49 184.02 127.57 191.34 125.73 204.17 127.89 211.16 132.14 214.31 137.52 216.67 144.79 216.37 149.97 216.37 157.1 215.32 161.02 209.68 164.56 203.83 162.91 197.79 162.6 191.1 160.21 188.45 160.44 181.87 163.15 167.16 164.58 154.5 164.59 151.01 166.33 142.02 168.52 125.98 171.05 118.69 173.22 112.56 173.57 111.79 174.08 112.04 175.92 113.15 177.79 117.19 179.38 123.18 182.17 130.22 183.89 137.52 184.99 143.68 188.05 157.37 190.66 164.05 195.06 170.75 198.03 175.57 204.03 178.24 208.2 175.9 211.07 173.03 213.38 168.27 216.1 160.2 218.44 152.5 220.95 144.84 223.67 135.84 226.74 127.93 230.28 121.22 234.16 115.93 236.3 113.79 237.06 114.1 239.09 115.73 239.31 120.86 240.15 126.83 241.73 131.73 240.19 135.91 239 145.21 239.28 154.29 240.19 161.38 242.16 165.04 241.9 176.41 243.85 182.11 243.85 188.9 246.26 198.12 248.77 202.48 249.53 210.01 252.07 221.43 254.09 228.91 255.22 240.36 258.53 250.8 259.05 261.39 259.05 264.04 261.04 267.58 262.96 274.86 266.64 281.94 272.01 278.21 274.48 271.82 273.07 271.82 273.07 263.46"/>
        </g>
        <g>
          <polygon class="cls-1" points="30 298.61 30 48.61 120.64 48.61 120.64 18.61 0 18.61 0 298.61 30 298.61"/>
          <polygon class="cls-1" points="0 298.61 0 328.61 120.64 328.61 120.64 298.61 30 298.61 0 298.61"/>
          <polygon class="cls-1" points="310 298.61 340 298.61 340 18.61 120.64 18.61 120.64 48.61 310 48.61 310 298.61"/>
          <polygon class="cls-1" points="340 328.61 340 298.61 310 298.61 120.64 298.61 120.64 328.61 340 328.61"/>
        </g>
      </g>
      <path class="cls-1" d="M583.91,221.03c16.24-8.54,28.73-20.85,37.48-36.91,8.74-16.06,13.12-35.29,13.12-57.69s-4.37-41.7-13.12-57.91c-8.75-16.2-21.24-28.58-37.48-37.13-16.24-8.54-35.86-12.82-58.84-12.82h-95.36c-3.84,0-6.95,3.11-6.95,6.95v295.55c0,3.84,3.11,6.95,6.95,6.95h23.58c3.84,0,6.95-3.11,6.95-6.95v-87.21h64.84c5.77,0,11.32-.27,16.66-.81l54.4,91.57c1.25,2.11,3.52,3.4,5.97,3.4h24.62c5.4,0,8.74-5.9,5.96-10.53l-55.74-92.78,6.98-3.67ZM523.95,196.28h-63.71V57.03h63.71c23.99,0,42.16,6.04,54.53,18.12,12.37,12.09,18.55,29.18,18.55,51.28s-6.18,39.27-18.55,51.5c-12.37,12.23-30.54,18.35-54.53,18.35Z"/>
      <rect class="cls-1" x="671.23" y="93.72" width="35.98" height="234.29" rx="6.95" ry="6.95"/>
      <rect class="cls-1" x="671.23" y="18.88" width="35.98" height="35.98" rx="6.95" ry="6.95"/>
      <path class="cls-1" d="M874.91,210.86c-7.37-4.42-15.55-7.88-24.55-10.39-8.99-2.5-17.99-4.57-26.98-6.19-8.99-1.62-17.18-3.61-24.55-5.97-7.37-2.36-13.37-5.67-17.99-9.95-4.63-4.27-6.93-10.39-6.93-18.35,0-9.43,3.87-17.16,11.62-23.21,7.74-6.04,19.49-9.06,35.23-9.06,9.74,0,19.49,1.33,29.23,3.98,7.39,2.01,14.56,5.29,21.51,9.84,3.55,2.32,8.34.93,10.1-2.93l9.49-20.76c1.41-3.08.41-6.76-2.41-8.64-7.7-5.12-17.04-9.19-28.02-12.22-13.37-3.68-26.55-5.53-39.54-5.53-16.99,0-31.67,2.87-44.04,8.62-12.37,5.75-21.92,13.92-28.67,24.53-6.75,10.61-10.12,22.99-10.12,37.13s2.25,24.39,6.75,32.49c4.5,8.11,10.49,14.44,17.99,19.01,7.5,4.57,15.74,8.11,24.74,10.61,8.99,2.51,17.99,4.57,26.98,6.19,8.99,1.62,17.18,3.47,24.55,5.53,7.37,2.07,13.3,5.16,17.8,9.28,4.5,4.13,6.75,9.88,6.75,17.24,0,10.02-3.69,17.83-11.06,23.43-7.37,5.6-19.43,8.4-36.17,8.4-12.99,0-25.74-2.36-38.23-7.07-9.4-3.54-17.67-7.67-24.8-12.39-3.58-2.37-8.42-.95-10.16,2.96l-9.36,20.97c-1.31,2.93-.45,6.39,2.1,8.34,8,6.15,18.27,11.45,30.79,15.92,14.86,5.3,30.54,7.96,47.03,7.96,17.74,0,32.98-2.87,45.72-8.62,12.74-5.75,22.61-13.77,29.61-24.09,6.99-10.31,10.49-22.55,10.49-36.69,0-13.26-2.31-23.87-6.93-31.83-4.63-7.96-10.62-14.15-17.99-18.57Z"/>
      <path class="cls-1" d="M1098.66,93.72h-25.27c-1.93,0-3.78.81-5.1,2.23l-106.25,114.64V6.95c0-3.84-3.11-6.95-6.95-6.95h-22.08c-3.84,0-6.95,3.11-6.95,6.95v314.11c0,3.84,3.11,6.95,6.95,6.95h22.08c3.84,0,6.95-3.11,6.95-6.95v-57.07l41.09-45.29,72.64,106.28c1.29,1.89,3.44,3.03,5.74,3.03h27.56c5.55,0,8.86-6.19,5.78-10.81l-84.59-126.61,73.65-85.39c3.88-4.5.68-11.49-5.26-11.49Z"/>
      <path class="cls-1" d="M1444.43,21.95l-133.29,222.63-134.95-222.66c-1.26-2.08-3.51-3.35-5.94-3.35h-19.87c-3.84,0-6.95,3.11-6.95,6.95v295.55c0,3.84,3.11,6.95,6.95,6.95h22.08c3.84,0,6.95-3.11,6.95-6.95V86.6l120.26,200.46c1.26,2.09,3.52,3.37,5.96,3.37h9.38c2.44,0,4.7-1.28,5.95-3.36l120.7-200.47v234.47c0,3.84,3.11,6.95,6.95,6.95h22.07c3.84,0,6.95-3.12,6.95-6.96V25.5c0-3.83-3.54-6.94-7.38-6.94h-19.86c-2.44,0-4.71,1.28-5.96,3.38Z"/>
      <path class="cls-1" d="M1660.64,114.94c-14.74-15.62-35.73-23.43-62.96-23.43-15.74,0-30.8,2.58-45.16,7.74-12.59,4.52-23.58,10.79-33,18.81-2.36,2.01-3.03,5.38-1.71,8.19l8.86,18.8c1.91,4.06,7.09,5.23,10.62,2.46,6.34-4.97,13.6-9.12,21.8-12.46,11.24-4.57,22.73-6.85,34.48-6.85,17.74,0,31.04,4.94,39.91,14.81,8.87,9.88,13.3,23.8,13.3,41.78v8.4h-56.96c-19.74,0-35.42,3.09-47.03,9.28-11.62,6.19-19.99,14.44-25.11,24.76-5.12,10.32-7.68,21.81-7.68,34.48s3,25.13,9,35.59c6,10.46,14.55,18.64,25.67,24.53,11.11,5.9,24.04,8.84,38.79,8.84,18.23,0,33.35-4.05,45.35-12.16,8.4-5.68,15.02-12.77,19.86-21.27v23.82c0,3.84,3.11,6.95,6.95,6.95h20.21c3.84,0,6.95-3.11,6.95-6.95v-134.51c0-32.12-7.37-55.99-22.11-71.61ZM1624.85,287.34c-10.12,7.07-21.92,10.61-35.42,10.61s-24.49-3.46-32.23-10.39c-7.75-6.92-11.62-16.14-11.62-27.63,0-10.02,3.12-18.57,9.37-25.64,6.24-7.07,18.36-10.61,36.35-10.61h55.47v32.65s0,.09-.02.13c-4.5,13.53-11.8,23.82-21.9,30.88Z"/>
      <path class="cls-1" d="M1892.74,136.16c-7-15.03-16.68-26.23-29.04-33.6-12.37-7.36-26.67-11.05-42.91-11.05-17.99,0-33.73,4.28-47.22,12.82-10.07,6.38-18.19,14.65-24.36,24.8v-28.46c0-3.84-3.11-6.95-6.95-6.95h-20.58c-3.84,0-6.95,3.11-6.95,6.95v220.4c0,3.84,3.11,6.95,6.95,6.95h22.08c3.84,0,6.95-3.11,6.95-6.95v-113.74c0-17.09,2.56-31.39,7.68-42.88,5.12-11.49,12.43-20.18,21.92-26.08,9.49-5.89,20.61-8.84,33.35-8.84,16.99,0,30.17,5.75,39.54,17.24,9.37,11.49,14.05,28.59,14.05,51.28v123.02c0,3.84,3.11,6.95,6.95,6.95h22.08c3.84,0,6.95-3.11,6.95-6.95v-127.88c0-22.99-3.5-42-10.49-57.03Z"/>
    </g>
  </g>
</svg>